<?xml version="1.0" encoding="UTF-8" standalone="no"?>
<!-- Created by Flowgorithm 2.22.1 (http://flowgorithm.org) -->

<svg xmlns:svg="http://www.w3.org/2000/svg" xmlns="http://www.w3.org/2000/svg" version="1.1" width="1300" height="1250">
	<g>
		<polyline fill="none" stroke="#000000" stroke-width="6" stroke-dasharray="none" points="575,125 575,186"/>
		<polygon fill="#000000" stroke="none" points="575,200 588,175 561,175"/>
		<polyline fill="none" stroke="#000000" stroke-width="6" stroke-dasharray="none" points="575,1050 575,1111"/>
		<polygon fill="#000000" stroke="none" points="575,1125 588,1100 561,1100"/>
		<g>
			<path fill="#FFFFFF" stroke="#000000" stroke-width="3" stroke-dasharray="none" d="M 475,25 A 50,50 0 0,0 475,125 L 675,125 A 50,50 0 0,0 675,25 Z"/>
			<text x="575" y="40" fill="#000000" font-family="Arial" font-size="32pt" text-anchor="middle" direction="ltr">
				<tspan x="575" dy="50" unicode-bidi="embed">Principal</tspan>
			</text>
		</g>
		<g>
			<path fill="#FFFFFF" stroke="#000000" stroke-width="3" stroke-dasharray="none" d="M 475,1125 A 50,50 0 0,0 475,1225 L 675,1225 A 50,50 0 0,0 675,1125 Z"/>
			<text x="575" y="1140" fill="#000000" font-family="Arial" font-size="32pt" text-anchor="middle" direction="ltr">
				<tspan x="575" dy="50" unicode-bidi="embed">Fim</tspan>
			</text>
		</g>
		<g>
			<polyline fill="none" stroke="#000000" stroke-width="6" stroke-dasharray="none" points="575,300 575,361"/>
			<polygon fill="#000000" stroke="none" points="575,375 588,350 561,350"/>
			<polyline fill="none" stroke="#000000" stroke-width="6" stroke-dasharray="none" points="575,875 575,936"/>
			<polygon fill="#000000" stroke="none" points="575,950 588,925 561,925"/>
			<g>
				<path fill="#FFFFFF" stroke="#000000" stroke-width="3" stroke-dasharray="none" d="M 375,200 L 375,300 L 775,300 L 775,200 Z"/>
				<polyline fill="none" stroke="#000000" stroke-width="3" stroke-dasharray="none" points="400,200 400,300"/>
				<polyline fill="none" stroke="#000000" stroke-width="3" stroke-dasharray="none" points="750,200 750,300"/>
				<text x="575" y="215" fill="#000000" font-family="Arial" font-size="32pt" text-anchor="middle" direction="ltr">
					<tspan x="575" dy="50" unicode-bidi="embed">comandoAntes</tspan>
				</text>
			</g>
			<g>
				<polyline fill="none" stroke="#000000" stroke-width="6" stroke-dasharray="none" points="750,475 1025,475 1025,636"/>
				<polygon fill="#000000" stroke="none" points="1025,650 1038,625 1011,625"/>
				<polyline fill="none" stroke="#000000" stroke-width="6" stroke-dasharray="none" points="1025,750 1025,850 613,850"/>
				<polygon fill="#000000" stroke="none" points="600,850 624,863 624,836"/>
				<polyline fill="none" stroke="#000000" stroke-width="6" stroke-dasharray="none" points="400,475 225,475 225,636"/>
				<polygon fill="#000000" stroke="none" points="225,650 238,625 211,625"/>
				<polyline fill="none" stroke="#000000" stroke-width="6" stroke-dasharray="none" points="225,750 225,850 536,850"/>
				<polygon fill="#000000" stroke="none" points="550,850 525,836 525,863"/>
				<g>
					<path fill="#E0E0E0" stroke="#000000" stroke-width="3" stroke-dasharray="none" d="M 575,375 L 375,475 L 575,575 L 775,475 Z"/>
					<text x="575" y="440" fill="#000000" font-family="Arial" font-size="32pt" text-anchor="middle" direction="ltr">
						<tspan x="575" dy="50" unicode-bidi="embed">Alternativa</tspan>
					</text>
				</g>
				<g>
					<path fill="#FFFFFF" stroke="#000000" stroke-width="3" stroke-dasharray="none" d="M 775,650 L 775,750 L 1275,750 L 1275,650 Z"/>
					<polyline fill="none" stroke="#000000" stroke-width="3" stroke-dasharray="none" points="800,650 800,750"/>
					<polyline fill="none" stroke="#000000" stroke-width="3" stroke-dasharray="none" points="1250,650 1250,750"/>
					<text x="1025" y="665" fill="#000000" font-family="Arial" font-size="32pt" text-anchor="middle" direction="ltr">
						<tspan x="1025" dy="50" unicode-bidi="embed">comandoVerdadeiro</tspan>
					</text>
				</g>
				<g>
					<path fill="#FFFFFF" stroke="#000000" stroke-width="3" stroke-dasharray="none" d="M 25,650 L 25,750 L 425,750 L 425,650 Z"/>
					<polyline fill="none" stroke="#000000" stroke-width="3" stroke-dasharray="none" points="50,650 50,750"/>
					<polyline fill="none" stroke="#000000" stroke-width="3" stroke-dasharray="none" points="400,650 400,750"/>
					<text x="225" y="665" fill="#000000" font-family="Arial" font-size="32pt" text-anchor="middle" direction="ltr">
						<tspan x="225" dy="50" unicode-bidi="embed">comandoFalso</tspan>
					</text>
				</g>
				<ellipse cx="575" cy="850" rx="25" ry="25" fill="#E0E0E0" stroke="#000000" stroke-width="3"/>
				<text x="912" y="390" fill="#000000" font-family="Arial" font-size="32pt" text-anchor="middle" direction="ltr">
					<tspan x="912" dy="50" unicode-bidi="embed">Verdadeiro</tspan>
				</text>
				<text x="287" y="390" fill="#000000" font-family="Arial" font-size="32pt" text-anchor="middle" direction="ltr">
					<tspan x="287" dy="50" unicode-bidi="embed">Falso</tspan>
				</text>
			</g>
			<g>
				<path fill="#FFFFFF" stroke="#000000" stroke-width="3" stroke-dasharray="none" d="M 350,950 L 350,1050 L 800,1050 L 800,950 Z"/>
				<polyline fill="none" stroke="#000000" stroke-width="3" stroke-dasharray="none" points="375,950 375,1050"/>
				<polyline fill="none" stroke="#000000" stroke-width="3" stroke-dasharray="none" points="775,950 775,1050"/>
				<text x="575" y="965" fill="#000000" font-family="Arial" font-size="32pt" text-anchor="middle" direction="ltr">
					<tspan x="575" dy="50" unicode-bidi="embed">comandoDepois</tspan>
				</text>
			</g>
		</g>
	</g>
</svg>
