<?xml version="1.0" encoding="UTF-8" standalone="no"?>
<!-- Created by Flowgorithm 2.22.1 (http://flowgorithm.org) -->

<svg xmlns:svg="http://www.w3.org/2000/svg" xmlns="http://www.w3.org/2000/svg" version="1.1" width="2575" height="2050">
	<g>
		<polyline fill="none" stroke="#000000" stroke-width="6" stroke-dasharray="none" points="1925,125 1925,186"/>
		<polygon fill="#000000" stroke="none" points="1925,200 1938,175 1911,175"/>
		<polyline fill="none" stroke="#000000" stroke-width="6" stroke-dasharray="none" points="1925,1850 1925,1911"/>
		<polygon fill="#000000" stroke="none" points="1925,1925 1938,1900 1911,1900"/>
		<g>
			<path fill="#FFFFFF" stroke="#000000" stroke-width="3" stroke-dasharray="none" d="M 1825,25 A 50,50 0 0,0 1825,125 L 2025,125 A 50,50 0 0,0 2025,25 Z"/>
			<text x="1925" y="40" fill="#000000" font-family="Arial" font-size="32pt" text-anchor="middle" direction="ltr">
				<tspan x="1925" dy="50" unicode-bidi="embed">Principal</tspan>
			</text>
		</g>
		<g>
			<path fill="#FFFFFF" stroke="#000000" stroke-width="3" stroke-dasharray="none" d="M 1825,1925 A 50,50 0 0,0 1825,2025 L 2025,2025 A 50,50 0 0,0 2025,1925 Z"/>
			<text x="1925" y="1940" fill="#000000" font-family="Arial" font-size="32pt" text-anchor="middle" direction="ltr">
				<tspan x="1925" dy="50" unicode-bidi="embed">Fim</tspan>
			</text>
		</g>
		<g>
			<polyline fill="none" stroke="#000000" stroke-width="6" stroke-dasharray="none" points="1925,300 1925,361"/>
			<polygon fill="#000000" stroke="none" points="1925,375 1938,350 1911,350"/>
			<polyline fill="none" stroke="#000000" stroke-width="6" stroke-dasharray="none" points="1925,1675 1925,1736"/>
			<polygon fill="#000000" stroke="none" points="1925,1750 1938,1725 1911,1725"/>
			<g>
				<path fill="#FFFFFF" stroke="#000000" stroke-width="3" stroke-dasharray="none" d="M 1725,200 L 1725,300 L 2125,300 L 2125,200 Z"/>
				<polyline fill="none" stroke="#000000" stroke-width="3" stroke-dasharray="none" points="1750,200 1750,300"/>
				<polyline fill="none" stroke="#000000" stroke-width="3" stroke-dasharray="none" points="2100,200 2100,300"/>
				<text x="1925" y="215" fill="#000000" font-family="Arial" font-size="32pt" text-anchor="middle" direction="ltr">
					<tspan x="1925" dy="50" unicode-bidi="embed">comandoAntes</tspan>
				</text>
			</g>
			<g>
				<polyline fill="none" stroke="#000000" stroke-width="6" stroke-dasharray="none" points="2100,475 2375,475 2375,636"/>
				<polygon fill="#000000" stroke="none" points="2375,650 2388,625 2361,625"/>
				<polyline fill="none" stroke="#000000" stroke-width="6" stroke-dasharray="none" points="2375,750 2375,1650 1963,1650"/>
				<polygon fill="#000000" stroke="none" points="1950,1650 1974,1663 1974,1636"/>
				<polyline fill="none" stroke="#000000" stroke-width="6" stroke-dasharray="none" points="1750,475 1250,475 1250,636"/>
				<polygon fill="#000000" stroke="none" points="1250,650 1263,625 1236,625"/>
				<polyline fill="none" stroke="#000000" stroke-width="6" stroke-dasharray="none" points="1250,1550 1250,1650 1886,1650"/>
				<polygon fill="#000000" stroke="none" points="1900,1650 1875,1636 1875,1663"/>
				<g>
					<path fill="#FFFFFF" stroke="#000000" stroke-width="3" stroke-dasharray="none" d="M 1925,375 L 1725,475 L 1925,575 L 2125,475 Z"/>
					<text x="1925" y="440" fill="#000000" font-family="Arial" font-size="32pt" text-anchor="middle" direction="ltr">
						<tspan x="1925" dy="50" unicode-bidi="embed">alternativa1</tspan>
					</text>
				</g>
				<g>
					<path fill="#FFFFFF" stroke="#000000" stroke-width="3" stroke-dasharray="none" d="M 2200,650 L 2200,750 L 2550,750 L 2550,650 Z"/>
					<polyline fill="none" stroke="#000000" stroke-width="3" stroke-dasharray="none" points="2225,650 2225,750"/>
					<polyline fill="none" stroke="#000000" stroke-width="3" stroke-dasharray="none" points="2525,650 2525,750"/>
					<text x="2375" y="665" fill="#000000" font-family="Arial" font-size="32pt" text-anchor="middle" direction="ltr">
						<tspan x="2375" dy="50" unicode-bidi="embed">comando1</tspan>
					</text>
				</g>
				<g>
					<polyline fill="none" stroke="#000000" stroke-width="6" stroke-dasharray="none" points="1425,750 1700,750 1700,911"/>
					<polygon fill="#000000" stroke="none" points="1700,925 1713,900 1686,900"/>
					<polyline fill="none" stroke="#000000" stroke-width="6" stroke-dasharray="none" points="1700,1025 1700,1525 1288,1525"/>
					<polygon fill="#000000" stroke="none" points="1275,1525 1299,1538 1299,1511"/>
					<polyline fill="none" stroke="#000000" stroke-width="6" stroke-dasharray="none" points="1075,750 575,750 575,911"/>
					<polygon fill="#000000" stroke="none" points="575,925 588,900 561,900"/>
					<polyline fill="none" stroke="#000000" stroke-width="6" stroke-dasharray="none" points="575,1425 575,1525 1211,1525"/>
					<polygon fill="#000000" stroke="none" points="1225,1525 1200,1511 1200,1538"/>
					<g>
						<path fill="#FFFFFF" stroke="#000000" stroke-width="3" stroke-dasharray="none" d="M 1250,650 L 1050,750 L 1250,850 L 1450,750 Z"/>
						<text x="1250" y="715" fill="#000000" font-family="Arial" font-size="32pt" text-anchor="middle" direction="ltr">
							<tspan x="1250" dy="50" unicode-bidi="embed">alternativa2</tspan>
						</text>
					</g>
					<g>
						<path fill="#FFFFFF" stroke="#000000" stroke-width="3" stroke-dasharray="none" d="M 1525,925 L 1525,1025 L 1875,1025 L 1875,925 Z"/>
						<polyline fill="none" stroke="#000000" stroke-width="3" stroke-dasharray="none" points="1550,925 1550,1025"/>
						<polyline fill="none" stroke="#000000" stroke-width="3" stroke-dasharray="none" points="1850,925 1850,1025"/>
						<text x="1700" y="940" fill="#000000" font-family="Arial" font-size="32pt" text-anchor="middle" direction="ltr">
							<tspan x="1700" dy="50" unicode-bidi="embed">comando2</tspan>
						</text>
					</g>
					<g>
						<polyline fill="none" stroke="#000000" stroke-width="6" stroke-dasharray="none" points="750,1025 1025,1025 1025,1186"/>
						<polygon fill="#000000" stroke="none" points="1025,1200 1038,1175 1011,1175"/>
						<polyline fill="none" stroke="#000000" stroke-width="6" stroke-dasharray="none" points="1025,1300 1025,1400 613,1400"/>
						<polygon fill="#000000" stroke="none" points="600,1400 624,1413 624,1386"/>
						<polyline fill="none" stroke="#000000" stroke-width="6" stroke-dasharray="none" points="400,1025 225,1025 225,1186"/>
						<polygon fill="#000000" stroke="none" points="225,1200 238,1175 211,1175"/>
						<polyline fill="none" stroke="#000000" stroke-width="6" stroke-dasharray="none" points="225,1300 225,1400 536,1400"/>
						<polygon fill="#000000" stroke="none" points="550,1400 525,1386 525,1413"/>
						<g>
							<path fill="#FFFFFF" stroke="#000000" stroke-width="3" stroke-dasharray="none" d="M 575,925 L 375,1025 L 575,1125 L 775,1025 Z"/>
							<text x="575" y="990" fill="#000000" font-family="Arial" font-size="32pt" text-anchor="middle" direction="ltr">
								<tspan x="575" dy="50" unicode-bidi="embed">alternativa3</tspan>
							</text>
						</g>
						<g>
							<path fill="#FFFFFF" stroke="#000000" stroke-width="3" stroke-dasharray="none" d="M 850,1200 L 850,1300 L 1200,1300 L 1200,1200 Z"/>
							<polyline fill="none" stroke="#000000" stroke-width="3" stroke-dasharray="none" points="875,1200 875,1300"/>
							<polyline fill="none" stroke="#000000" stroke-width="3" stroke-dasharray="none" points="1175,1200 1175,1300"/>
							<text x="1025" y="1215" fill="#000000" font-family="Arial" font-size="32pt" text-anchor="middle" direction="ltr">
								<tspan x="1025" dy="50" unicode-bidi="embed">comando3</tspan>
							</text>
						</g>
						<g>
							<path fill="#FFFFFF" stroke="#000000" stroke-width="3" stroke-dasharray="none" d="M 25,1200 L 25,1300 L 425,1300 L 425,1200 Z"/>
							<polyline fill="none" stroke="#000000" stroke-width="3" stroke-dasharray="none" points="50,1200 50,1300"/>
							<polyline fill="none" stroke="#000000" stroke-width="3" stroke-dasharray="none" points="400,1200 400,1300"/>
							<text x="225" y="1215" fill="#000000" font-family="Arial" font-size="32pt" text-anchor="middle" direction="ltr">
								<tspan x="225" dy="50" unicode-bidi="embed">comandoElse</tspan>
							</text>
						</g>
						<ellipse cx="575" cy="1400" rx="25" ry="25" fill="#FFFFFF" stroke="#000000" stroke-width="3"/>
						<text x="912" y="940" fill="#000000" font-family="Arial" font-size="32pt" text-anchor="middle" direction="ltr">
							<tspan x="912" dy="50" unicode-bidi="embed">Verdadeiro</tspan>
						</text>
						<text x="287" y="940" fill="#000000" font-family="Arial" font-size="32pt" text-anchor="middle" direction="ltr">
							<tspan x="287" dy="50" unicode-bidi="embed">Falso</tspan>
						</text>
					</g>
					<ellipse cx="1250" cy="1525" rx="25" ry="25" fill="#FFFFFF" stroke="#000000" stroke-width="3"/>
					<text x="1587" y="665" fill="#000000" font-family="Arial" font-size="32pt" text-anchor="middle" direction="ltr">
						<tspan x="1587" dy="50" unicode-bidi="embed">Verdadeiro</tspan>
					</text>
					<text x="962" y="665" fill="#000000" font-family="Arial" font-size="32pt" text-anchor="middle" direction="ltr">
						<tspan x="962" dy="50" unicode-bidi="embed">Falso</tspan>
					</text>
				</g>
				<ellipse cx="1925" cy="1650" rx="25" ry="25" fill="#FFFFFF" stroke="#000000" stroke-width="3"/>
				<text x="2262" y="390" fill="#000000" font-family="Arial" font-size="32pt" text-anchor="middle" direction="ltr">
					<tspan x="2262" dy="50" unicode-bidi="embed">Verdadeiro</tspan>
				</text>
				<text x="1637" y="390" fill="#000000" font-family="Arial" font-size="32pt" text-anchor="middle" direction="ltr">
					<tspan x="1637" dy="50" unicode-bidi="embed">Falso</tspan>
				</text>
			</g>
			<g>
				<path fill="#FFFFFF" stroke="#000000" stroke-width="3" stroke-dasharray="none" d="M 1700,1750 L 1700,1850 L 2150,1850 L 2150,1750 Z"/>
				<polyline fill="none" stroke="#000000" stroke-width="3" stroke-dasharray="none" points="1725,1750 1725,1850"/>
				<polyline fill="none" stroke="#000000" stroke-width="3" stroke-dasharray="none" points="2125,1750 2125,1850"/>
				<text x="1925" y="1765" fill="#000000" font-family="Arial" font-size="32pt" text-anchor="middle" direction="ltr">
					<tspan x="1925" dy="50" unicode-bidi="embed">comandoDepois</tspan>
				</text>
			</g>
		</g>
	</g>
</svg>
