<?xml version="1.0" encoding="UTF-8" standalone="no"?>
<!-- Created by Flowgorithm 2.22.1 (http://flowgorithm.org) -->

<svg xmlns:svg="http://www.w3.org/2000/svg" xmlns="http://www.w3.org/2000/svg" version="1.1" width="1350" height="1425">
	<g>
		<polyline fill="none" stroke="#000000" stroke-width="6" stroke-dasharray="none" points="600,125 600,186"/>
		<polygon fill="#000000" stroke="none" points="600,200 613,175 586,175"/>
		<polyline fill="none" stroke="#000000" stroke-width="6" stroke-dasharray="none" points="600,1225 600,1286"/>
		<polygon fill="#000000" stroke="none" points="600,1300 613,1275 586,1275"/>
		<g>
			<path fill="#FFFFFF" stroke="#000000" stroke-width="3" stroke-dasharray="none" d="M 500,25 A 50,50 0 0,0 500,125 L 700,125 A 50,50 0 0,0 700,25 Z"/>
			<text x="600" y="40" fill="#000000" font-family="Arial" font-size="32pt" text-anchor="middle" direction="ltr">
				<tspan x="600" dy="50" unicode-bidi="embed">Principal</tspan>
			</text>
		</g>
		<g>
			<path fill="#FFFFFF" stroke="#000000" stroke-width="3" stroke-dasharray="none" d="M 500,1300 A 50,50 0 0,0 500,1400 L 700,1400 A 50,50 0 0,0 700,1300 Z"/>
			<text x="600" y="1315" fill="#000000" font-family="Arial" font-size="32pt" text-anchor="middle" direction="ltr">
				<tspan x="600" dy="50" unicode-bidi="embed">Fim</tspan>
			</text>
		</g>
		<g>
			<polyline fill="none" stroke="#000000" stroke-width="6" stroke-dasharray="none" points="600,300 600,361"/>
			<polygon fill="#000000" stroke="none" points="600,375 613,350 586,350"/>
			<polyline fill="none" stroke="#000000" stroke-width="6" stroke-dasharray="none" points="600,1050 600,1111"/>
			<polygon fill="#000000" stroke="none" points="600,1125 613,1100 586,1100"/>
			<g>
				<path fill="#FFFFFF" stroke="#000000" stroke-width="3" stroke-dasharray="none" d="M 400,200 L 400,300 L 800,300 L 800,200 Z"/>
				<polyline fill="none" stroke="#000000" stroke-width="3" stroke-dasharray="none" points="425,200 425,300"/>
				<polyline fill="none" stroke="#000000" stroke-width="3" stroke-dasharray="none" points="775,200 775,300"/>
				<text x="600" y="215" fill="#000000" font-family="Arial" font-size="32pt" text-anchor="middle" direction="ltr">
					<tspan x="600" dy="50" unicode-bidi="embed">comandoAntes</tspan>
				</text>
			</g>
			<g>
				<polyline fill="none" stroke="#000000" stroke-width="6" stroke-dasharray="none" points="775,475 1050,475 1050,636"/>
				<polygon fill="#000000" stroke="none" points="1050,650 1063,625 1036,625"/>
				<polyline fill="none" stroke="#000000" stroke-width="6" stroke-dasharray="none" points="1050,925 1050,1025 638,1025"/>
				<polygon fill="#000000" stroke="none" points="625,1025 649,1038 649,1011"/>
				<polyline fill="none" stroke="#000000" stroke-width="6" stroke-dasharray="none" points="425,475 250,475 250,636"/>
				<polygon fill="#000000" stroke="none" points="250,650 263,625 236,625"/>
				<polyline fill="none" stroke="#000000" stroke-width="6" stroke-dasharray="none" points="250,925 250,1025 561,1025"/>
				<polygon fill="#000000" stroke="none" points="575,1025 550,1011 550,1038"/>
				<g>
					<path fill="#E0E0E0" stroke="#000000" stroke-width="3" stroke-dasharray="none" d="M 600,375 L 400,475 L 600,575 L 800,475 Z"/>
					<text x="600" y="440" fill="#000000" font-family="Arial" font-size="32pt" text-anchor="middle" direction="ltr">
						<tspan x="600" dy="50" unicode-bidi="embed">Alternativa</tspan>
					</text>
				</g>
				<g>
					<polyline fill="none" stroke="#000000" stroke-width="6" stroke-dasharray="none" points="1050,750 1050,811"/>
					<polygon fill="#000000" stroke="none" points="1050,825 1063,800 1036,800"/>
					<g>
						<path fill="#FFFFFF" stroke="#000000" stroke-width="3" stroke-dasharray="none" d="M 800,650 L 800,750 L 1300,750 L 1300,650 Z"/>
						<polyline fill="none" stroke="#000000" stroke-width="3" stroke-dasharray="none" points="825,650 825,750"/>
						<polyline fill="none" stroke="#000000" stroke-width="3" stroke-dasharray="none" points="1275,650 1275,750"/>
						<text x="1050" y="665" fill="#000000" font-family="Arial" font-size="32pt" text-anchor="middle" direction="ltr">
							<tspan x="1050" dy="50" unicode-bidi="embed">comandoVerdadeiro</tspan>
						</text>
					</g>
					<g>
						<path fill="#FFFFFF" stroke="#000000" stroke-width="3" stroke-dasharray="none" d="M 775,825 L 775,925 L 1325,925 L 1325,825 Z"/>
						<polyline fill="none" stroke="#000000" stroke-width="3" stroke-dasharray="none" points="800,825 800,925"/>
						<polyline fill="none" stroke="#000000" stroke-width="3" stroke-dasharray="none" points="1300,825 1300,925"/>
						<text x="1050" y="840" fill="#000000" font-family="Arial" font-size="32pt" text-anchor="middle" direction="ltr">
							<tspan x="1050" dy="50" unicode-bidi="embed">comandoVerdadeiro2</tspan>
						</text>
					</g>
				</g>
				<g>
					<polyline fill="none" stroke="#000000" stroke-width="6" stroke-dasharray="none" points="250,750 250,811"/>
					<polygon fill="#000000" stroke="none" points="250,825 263,800 236,800"/>
					<g>
						<path fill="#FFFFFF" stroke="#000000" stroke-width="3" stroke-dasharray="none" d="M 50,650 L 50,750 L 450,750 L 450,650 Z"/>
						<polyline fill="none" stroke="#000000" stroke-width="3" stroke-dasharray="none" points="75,650 75,750"/>
						<polyline fill="none" stroke="#000000" stroke-width="3" stroke-dasharray="none" points="425,650 425,750"/>
						<text x="250" y="665" fill="#000000" font-family="Arial" font-size="32pt" text-anchor="middle" direction="ltr">
							<tspan x="250" dy="50" unicode-bidi="embed">comandoFalso</tspan>
						</text>
					</g>
					<g>
						<path fill="#FFFFFF" stroke="#000000" stroke-width="3" stroke-dasharray="none" d="M 25,825 L 25,925 L 475,925 L 475,825 Z"/>
						<polyline fill="none" stroke="#000000" stroke-width="3" stroke-dasharray="none" points="50,825 50,925"/>
						<polyline fill="none" stroke="#000000" stroke-width="3" stroke-dasharray="none" points="450,825 450,925"/>
						<text x="250" y="840" fill="#000000" font-family="Arial" font-size="32pt" text-anchor="middle" direction="ltr">
							<tspan x="250" dy="50" unicode-bidi="embed">comandoFalso2</tspan>
						</text>
					</g>
				</g>
				<ellipse cx="600" cy="1025" rx="25" ry="25" fill="#E0E0E0" stroke="#000000" stroke-width="3"/>
				<text x="937" y="390" fill="#000000" font-family="Arial" font-size="32pt" text-anchor="middle" direction="ltr">
					<tspan x="937" dy="50" unicode-bidi="embed">Verdadeiro</tspan>
				</text>
				<text x="312" y="390" fill="#000000" font-family="Arial" font-size="32pt" text-anchor="middle" direction="ltr">
					<tspan x="312" dy="50" unicode-bidi="embed">Falso</tspan>
				</text>
			</g>
			<g>
				<path fill="#FFFFFF" stroke="#000000" stroke-width="3" stroke-dasharray="none" d="M 375,1125 L 375,1225 L 825,1225 L 825,1125 Z"/>
				<polyline fill="none" stroke="#000000" stroke-width="3" stroke-dasharray="none" points="400,1125 400,1225"/>
				<polyline fill="none" stroke="#000000" stroke-width="3" stroke-dasharray="none" points="800,1125 800,1225"/>
				<text x="600" y="1140" fill="#000000" font-family="Arial" font-size="32pt" text-anchor="middle" direction="ltr">
					<tspan x="600" dy="50" unicode-bidi="embed">comandoDepois</tspan>
				</text>
			</g>
		</g>
	</g>
</svg>
