<?xml version="1.0" encoding="UTF-8" standalone="no"?>
<!-- Created by Flowgorithm 2.22.1 (http://flowgorithm.org) -->

<svg xmlns:svg="http://www.w3.org/2000/svg" xmlns="http://www.w3.org/2000/svg" version="1.1" width="800" height="1125">
	<g>
		<polyline fill="none" stroke="#000000" stroke-width="6" stroke-dasharray="none" points="175,125 175,186"/>
		<polygon fill="#000000" stroke="none" points="175,200 188,175 161,175"/>
		<polyline fill="none" stroke="#000000" stroke-width="6" stroke-dasharray="none" points="175,500 175,986"/>
		<polygon fill="#000000" stroke="none" points="175,1000 188,975 161,975"/>
		<g>
			<path fill="#FFFFFF" stroke="#000000" stroke-width="3" stroke-dasharray="none" d="M 75,25 A 50,50 0 0,0 75,125 L 275,125 A 50,50 0 0,0 275,25 Z"/>
			<text x="175" y="40" fill="#000000" font-family="Arial" font-size="32pt" text-anchor="middle" direction="ltr">
				<tspan x="175" dy="50" unicode-bidi="embed">Principal</tspan>
			</text>
		</g>
		<g>
			<path fill="#FFFFFF" stroke="#000000" stroke-width="3" stroke-dasharray="none" d="M 75,1000 A 50,50 0 0,0 75,1100 L 275,1100 A 50,50 0 0,0 275,1000 Z"/>
			<text x="175" y="1015" fill="#000000" font-family="Arial" font-size="32pt" text-anchor="middle" direction="ltr">
				<tspan x="175" dy="50" unicode-bidi="embed">Fim</tspan>
			</text>
		</g>
		<g>
			<polyline fill="none" stroke="#000000" stroke-width="6" stroke-dasharray="none" points="175,300 175,386"/>
			<polygon fill="#000000" stroke="none" points="175,400 188,375 161,375"/>
			<g>
				<path fill="#FFFFFF" stroke="#000000" stroke-width="3" stroke-dasharray="none" d="M 25,200 L 25,300 L 325,300 L 325,200 Z"/>
				<text x="175" y="215" fill="#000000" font-family="Arial" font-size="32pt" text-anchor="middle" direction="ltr">
					<tspan x="175" dy="50" unicode-bidi="embed">i = 0</tspan>
				</text>
			</g>
			<g>
				<polyline fill="none" stroke="#000000" stroke-width="6" stroke-dasharray="none" points="325,450 575,450 575,561"/>
				<polygon fill="#000000" stroke="none" points="575,575 588,550 561,550"/>
				<polyline fill="none" stroke="#000000" stroke-width="6" stroke-dasharray="none" points="575,850 575,925 225,925 225,513"/>
				<polygon fill="#000000" stroke="none" points="225,500 211,524 238,524"/>
				<g>
					<polyline fill="none" stroke="#000000" stroke-width="6" stroke-dasharray="none" points="575,675 575,736"/>
					<polygon fill="#000000" stroke="none" points="575,750 588,725 561,725"/>
					<g>
						<path fill="#FFFFFF" stroke="#000000" stroke-width="3" stroke-dasharray="none" d="M 375,575 L 375,675 L 775,675 L 775,575 Z"/>
						<polyline fill="none" stroke="#000000" stroke-width="3" stroke-dasharray="none" points="400,575 400,675"/>
						<polyline fill="none" stroke="#000000" stroke-width="3" stroke-dasharray="none" points="750,575 750,675"/>
						<text x="575" y="590" fill="#000000" font-family="Arial" font-size="32pt" text-anchor="middle" direction="ltr">
							<tspan x="575" dy="50" unicode-bidi="embed">a&#231;&#227;oDesejada</tspan>
						</text>
					</g>
					<g>
						<path fill="#FFFFFF" stroke="#000000" stroke-width="3" stroke-dasharray="none" d="M 425,750 L 425,850 L 725,850 L 725,750 Z"/>
						<text x="575" y="765" fill="#000000" font-family="Arial" font-size="32pt" text-anchor="middle" direction="ltr">
							<tspan x="575" dy="50" unicode-bidi="embed">i = i+1</tspan>
						</text>
					</g>
				</g>
				<g>
					<path fill="#FFFFFF" stroke="#000000" stroke-width="3" stroke-dasharray="none" d="M 75,400 L 25,450 L 25,500 L 325,500 L 325,450 L 275,400 Z"/>
					<text x="175" y="415" fill="#000000" font-family="Arial" font-size="32pt" text-anchor="middle" direction="ltr">
						<tspan x="175" dy="50" unicode-bidi="embed">i &lt; 10</tspan>
					</text>
				</g>
				<text x="462" y="365" fill="#000000" font-family="Arial" font-size="32pt" text-anchor="middle" direction="ltr">
					<tspan x="462" dy="50" unicode-bidi="embed">Verdadeiro</tspan>
				</text>
				<text x="87" y="515" fill="#000000" font-family="Arial" font-size="32pt" text-anchor="middle" direction="ltr">
					<tspan x="87" dy="50" unicode-bidi="embed">Falso</tspan>
				</text>
			</g>
		</g>
	</g>
</svg>
