<svg version="1.1" xmlns="http://www.w3.org/2000/svg" xmlns:xlink="http://www.w3.org/1999/xlink" width="1540" height="848"><defs><clipPath id="QfsivHTqTyIW"><path fill="none" stroke="none" d=" M 0 0 L 1540 0 L 1540 848 L 0 848 L 0 0 Z"/></clipPath></defs><g transform="scale(1,1)" clip-path="url(#QfsivHTqTyIW)"><g><rect fill="rgb(255,255,255)" stroke="none" x="0" y="0" width="1540" height="848" fill-opacity="1"/><path fill="none" stroke="rgb(192,192,192)" paint-order="fill stroke markers" d=" M 26.5 0.5 L 26.5 848.5 M 26.5 0.5 L 26.5 848.5 M 117.5 0.5 L 117.5 848.5 M 208.5 0.5 L 208.5 848.5 M 299.5 0.5 L 299.5 848.5 M 390.5 0.5 L 390.5 848.5 M 572.5 0.5 L 572.5 848.5 M 663.5 0.5 L 663.5 848.5 M 754.5 0.5 L 754.5 848.5 M 845.5 0.5 L 845.5 848.5 M 935.5 0.5 L 935.5 848.5 M 1026.5 0.5 L 1026.5 848.5 M 1117.5 0.5 L 1117.5 848.5 M 1208.5 0.5 L 1208.5 848.5 M 1299.5 0.5 L 1299.5 848.5 M 1390.5 0.5 L 1390.5 848.5 M 1481.5 0.5 L 1481.5 848.5" stroke-opacity="1" stroke-linecap="round" stroke-linejoin="round" stroke-miterlimit="10"/><path fill="none" stroke="rgb(192,192,192)" paint-order="fill stroke markers" d=" M 8.5 0.5 L 8.5 848.5 M 45.5 0.5 L 45.5 848.5 M 63.5 0.5 L 63.5 848.5 M 81.5 0.5 L 81.5 848.5 M 99.5 0.5 L 99.5 848.5 M 136.5 0.5 L 136.5 848.5 M 154.5 0.5 L 154.5 848.5 M 172.5 0.5 L 172.5 848.5 M 190.5 0.5 L 190.5 848.5 M 226.5 0.5 L 226.5 848.5 M 245.5 0.5 L 245.5 848.5 M 263.5 0.5 L 263.5 848.5 M 281.5 0.5 L 281.5 848.5 M 317.5 0.5 L 317.5 848.5 M 336.5 0.5 L 336.5 848.5 M 354.5 0.5 L 354.5 848.5 M 372.5 0.5 L 372.5 848.5 M 408.5 0.5 L 408.5 848.5 M 426.5 0.5 L 426.5 848.5 M 445.5 0.5 L 445.5 848.5 M 463.5 0.5 L 463.5 848.5 M 499.5 0.5 L 499.5 848.5 M 517.5 0.5 L 517.5 848.5 M 535.5 0.5 L 535.5 848.5 M 554.5 0.5 L 554.5 848.5 M 590.5 0.5 L 590.5 848.5 M 608.5 0.5 L 608.5 848.5 M 626.5 0.5 L 626.5 848.5 M 645.5 0.5 L 645.5 848.5 M 681.5 0.5 L 681.5 848.5 M 699.5 0.5 L 699.5 848.5 M 717.5 0.5 L 717.5 848.5 M 735.5 0.5 L 735.5 848.5 M 772.5 0.5 L 772.5 848.5 M 790.5 0.5 L 790.5 848.5 M 808.5 0.5 L 808.5 848.5 M 826.5 0.5 L 826.5 848.5 M 863.5 0.5 L 863.5 848.5 M 881.5 0.5 L 881.5 848.5 M 899.5 0.5 L 899.5 848.5 M 917.5 0.5 L 917.5 848.5 M 954.5 0.5 L 954.5 848.5 M 972.5 0.5 L 972.5 848.5 M 990.5 0.5 L 990.5 848.5 M 1008.5 0.5 L 1008.5 848.5 M 1045.5 0.5 L 1045.5 848.5 M 1063.5 0.5 L 1063.5 848.5 M 1081.5 0.5 L 1081.5 848.5 M 1099.5 0.5 L 1099.5 848.5 M 1135.5 0.5 L 1135.5 848.5 M 1154.5 0.5 L 1154.5 848.5 M 1172.5 0.5 L 1172.5 848.5 M 1190.5 0.5 L 1190.5 848.5 M 1226.5 0.5 L 1226.5 848.5 M 1245.5 0.5 L 1245.5 848.5 M 1263.5 0.5 L 1263.5 848.5 M 1281.5 0.5 L 1281.5 848.5 M 1317.5 0.5 L 1317.5 848.5 M 1335.5 0.5 L 1335.5 848.5 M 1354.5 0.5 L 1354.5 848.5 M 1372.5 0.5 L 1372.5 848.5 M 1408.5 0.5 L 1408.5 848.5 M 1426.5 0.5 L 1426.5 848.5 M 1445.5 0.5 L 1445.5 848.5 M 1463.5 0.5 L 1463.5 848.5 M 1499.5 0.5 L 1499.5 848.5 M 1517.5 0.5 L 1517.5 848.5 M 1535.5 0.5 L 1535.5 848.5" stroke-opacity="0.23529411764705882" stroke-linecap="round" stroke-linejoin="round" stroke-miterlimit="10"/><path fill="none" stroke="rgb(192,192,192)" paint-order="fill stroke markers" d=" M 0.5 10.5 L 1540.5 10.5 M 0.5 10.5 L 1540.5 10.5 M 0.5 101.5 L 1540.5 101.5 M 0.5 192.5 L 1540.5 192.5 M 0.5 283.5 L 1540.5 283.5 M 0.5 374.5 L 1540.5 374.5 M 0.5 556.5 L 1540.5 556.5 M 0.5 646.5 L 1540.5 646.5 M 0.5 737.5 L 1540.5 737.5 M 0.5 828.5 L 1540.5 828.5" stroke-opacity="1" stroke-linecap="round" stroke-linejoin="round" stroke-miterlimit="10"/><path fill="none" stroke="rgb(192,192,192)" paint-order="fill stroke markers" d=" M 0.5 10.5 L 1540.5 10.5 M 0.5 28.5 L 1540.5 28.5 M 0.5 47.5 L 1540.5 47.5 M 0.5 65.5 L 1540.5 65.5 M 0.5 83.5 L 1540.5 83.5 M 0.5 119.5 L 1540.5 119.5 M 0.5 137.5 L 1540.5 137.5 M 0.5 156.5 L 1540.5 156.5 M 0.5 174.5 L 1540.5 174.5 M 0.5 210.5 L 1540.5 210.5 M 0.5 228.5 L 1540.5 228.5 M 0.5 247.5 L 1540.5 247.5 M 0.5 265.5 L 1540.5 265.5 M 0.5 301.5 L 1540.5 301.5 M 0.5 319.5 L 1540.5 319.5 M 0.5 337.5 L 1540.5 337.5 M 0.5 356.5 L 1540.5 356.5 M 0.5 392.5 L 1540.5 392.5 M 0.5 410.5 L 1540.5 410.5 M 0.5 428.5 L 1540.5 428.5 M 0.5 447.5 L 1540.5 447.5 M 0.5 483.5 L 1540.5 483.5 M 0.5 501.5 L 1540.5 501.5 M 0.5 519.5 L 1540.5 519.5 M 0.5 537.5 L 1540.5 537.5 M 0.5 574.5 L 1540.5 574.5 M 0.5 592.5 L 1540.5 592.5 M 0.5 610.5 L 1540.5 610.5 M 0.5 628.5 L 1540.5 628.5 M 0.5 665.5 L 1540.5 665.5 M 0.5 683.5 L 1540.5 683.5 M 0.5 701.5 L 1540.5 701.5 M 0.5 719.5 L 1540.5 719.5 M 0.5 756.5 L 1540.5 756.5 M 0.5 774.5 L 1540.5 774.5 M 0.5 792.5 L 1540.5 792.5 M 0.5 810.5 L 1540.5 810.5 M 0.5 846.5 L 1540.5 846.5" stroke-opacity="0.23529411764705882" stroke-linecap="round" stroke-linejoin="round" stroke-miterlimit="10"/><path fill="none" stroke="rgb(0,0,0)" paint-order="fill stroke markers" d=" M 481.5 2.5 L 481.5 848.5" stroke-opacity="1" stroke-miterlimit="10"/><path fill="none" stroke="rgb(0,0,0)" paint-order="fill stroke markers" d=" M 481.5 1.5 L 477.5 5.5" stroke-opacity="1" stroke-miterlimit="10"/><path fill="none" stroke="rgb(0,0,0)" paint-order="fill stroke markers" d=" M 481.5 1.5 L 485.5 5.5" stroke-opacity="1" stroke-miterlimit="10"/><path fill="none" stroke="rgb(0,0,0)" paint-order="fill stroke markers" d=" M 0.5 465.5 L 1538.5 465.5" stroke-opacity="1" stroke-miterlimit="10"/><path fill="none" stroke="rgb(0,0,0)" paint-order="fill stroke markers" d=" M 1539.5 465.5 L 1535.5 461.5" stroke-opacity="1" stroke-miterlimit="10"/><path fill="none" stroke="rgb(0,0,0)" paint-order="fill stroke markers" d=" M 1539.5 465.5 L 1535.5 469.5" stroke-opacity="1" stroke-miterlimit="10"/><text fill="rgb(0,0,0)" stroke="none" font-family="geogebra-sans-serif, sans-serif" font-size="12px" font-style="normal" font-weight="normal" text-decoration="normal" x="18" y="481" text-anchor="start" dominant-baseline="alphabetic" fill-opacity="1">–10</text><text fill="none" stroke="rgb(255,255,255)" font-family="geogebra-sans-serif, sans-serif" font-size="12px" font-style="normal" font-weight="normal" text-decoration="normal" x="18" y="481" text-anchor="start" dominant-baseline="alphabetic" stroke-opacity="1" stroke-linejoin="bevel" stroke-miterlimit="10" stroke-width="3">–10</text><text fill="rgb(0,0,0)" stroke="none" font-family="geogebra-sans-serif, sans-serif" font-size="12px" font-style="normal" font-weight="normal" text-decoration="normal" x="18" y="481" text-anchor="start" dominant-baseline="alphabetic" fill-opacity="1">–10</text><text fill="rgb(0,0,0)" stroke="none" font-family="geogebra-sans-serif, sans-serif" font-size="12px" font-style="normal" font-weight="normal" text-decoration="normal" x="112" y="481" text-anchor="start" dominant-baseline="alphabetic" fill-opacity="1">–8</text><text fill="none" stroke="rgb(255,255,255)" font-family="geogebra-sans-serif, sans-serif" font-size="12px" font-style="normal" font-weight="normal" text-decoration="normal" x="112" y="481" text-anchor="start" dominant-baseline="alphabetic" stroke-opacity="1" stroke-linejoin="bevel" stroke-miterlimit="10" stroke-width="3">–8</text><text fill="rgb(0,0,0)" stroke="none" font-family="geogebra-sans-serif, sans-serif" font-size="12px" font-style="normal" font-weight="normal" text-decoration="normal" x="112" y="481" text-anchor="start" dominant-baseline="alphabetic" fill-opacity="1">–8</text><text fill="rgb(0,0,0)" stroke="none" font-family="geogebra-sans-serif, sans-serif" font-size="12px" font-style="normal" font-weight="normal" text-decoration="normal" x="203" y="481" text-anchor="start" dominant-baseline="alphabetic" fill-opacity="1">–6</text><text fill="none" stroke="rgb(255,255,255)" font-family="geogebra-sans-serif, sans-serif" font-size="12px" font-style="normal" font-weight="normal" text-decoration="normal" x="203" y="481" text-anchor="start" dominant-baseline="alphabetic" stroke-opacity="1" stroke-linejoin="bevel" stroke-miterlimit="10" stroke-width="3">–6</text><text fill="rgb(0,0,0)" stroke="none" font-family="geogebra-sans-serif, sans-serif" font-size="12px" font-style="normal" font-weight="normal" text-decoration="normal" x="203" y="481" text-anchor="start" dominant-baseline="alphabetic" fill-opacity="1">–6</text><text fill="rgb(0,0,0)" stroke="none" font-family="geogebra-sans-serif, sans-serif" font-size="12px" font-style="normal" font-weight="normal" text-decoration="normal" x="294" y="481" text-anchor="start" dominant-baseline="alphabetic" fill-opacity="1">–4</text><text fill="none" stroke="rgb(255,255,255)" font-family="geogebra-sans-serif, sans-serif" font-size="12px" font-style="normal" font-weight="normal" text-decoration="normal" x="294" y="481" text-anchor="start" dominant-baseline="alphabetic" stroke-opacity="1" stroke-linejoin="bevel" stroke-miterlimit="10" stroke-width="3">–4</text><text fill="rgb(0,0,0)" stroke="none" font-family="geogebra-sans-serif, sans-serif" font-size="12px" font-style="normal" font-weight="normal" text-decoration="normal" x="294" y="481" text-anchor="start" dominant-baseline="alphabetic" fill-opacity="1">–4</text><text fill="rgb(0,0,0)" stroke="none" font-family="geogebra-sans-serif, sans-serif" font-size="12px" font-style="normal" font-weight="normal" text-decoration="normal" x="385" y="481" text-anchor="start" dominant-baseline="alphabetic" fill-opacity="1">–2</text><text fill="none" stroke="rgb(255,255,255)" font-family="geogebra-sans-serif, sans-serif" font-size="12px" font-style="normal" font-weight="normal" text-decoration="normal" x="385" y="481" text-anchor="start" dominant-baseline="alphabetic" stroke-opacity="1" stroke-linejoin="bevel" stroke-miterlimit="10" stroke-width="3">–2</text><text fill="rgb(0,0,0)" stroke="none" font-family="geogebra-sans-serif, sans-serif" font-size="12px" font-style="normal" font-weight="normal" text-decoration="normal" x="385" y="481" text-anchor="start" dominant-baseline="alphabetic" fill-opacity="1">–2</text><text fill="rgb(0,0,0)" stroke="none" font-family="geogebra-sans-serif, sans-serif" font-size="12px" font-style="normal" font-weight="normal" text-decoration="normal" x="570" y="481" text-anchor="start" dominant-baseline="alphabetic" fill-opacity="1">2</text><text fill="none" stroke="rgb(255,255,255)" font-family="geogebra-sans-serif, sans-serif" font-size="12px" font-style="normal" font-weight="normal" text-decoration="normal" x="570" y="481" text-anchor="start" dominant-baseline="alphabetic" stroke-opacity="1" stroke-linejoin="bevel" stroke-miterlimit="10" stroke-width="3">2</text><text fill="rgb(0,0,0)" stroke="none" font-family="geogebra-sans-serif, sans-serif" font-size="12px" font-style="normal" font-weight="normal" text-decoration="normal" x="570" y="481" text-anchor="start" dominant-baseline="alphabetic" fill-opacity="1">2</text><text fill="rgb(0,0,0)" stroke="none" font-family="geogebra-sans-serif, sans-serif" font-size="12px" font-style="normal" font-weight="normal" text-decoration="normal" x="661" y="481" text-anchor="start" dominant-baseline="alphabetic" fill-opacity="1">4</text><text fill="none" stroke="rgb(255,255,255)" font-family="geogebra-sans-serif, sans-serif" font-size="12px" font-style="normal" font-weight="normal" text-decoration="normal" x="661" y="481" text-anchor="start" dominant-baseline="alphabetic" stroke-opacity="1" stroke-linejoin="bevel" stroke-miterlimit="10" stroke-width="3">4</text><text fill="rgb(0,0,0)" stroke="none" font-family="geogebra-sans-serif, sans-serif" font-size="12px" font-style="normal" font-weight="normal" text-decoration="normal" x="661" y="481" text-anchor="start" dominant-baseline="alphabetic" fill-opacity="1">4</text><text fill="rgb(0,0,0)" stroke="none" font-family="geogebra-sans-serif, sans-serif" font-size="12px" font-style="normal" font-weight="normal" text-decoration="normal" x="752" y="481" text-anchor="start" dominant-baseline="alphabetic" fill-opacity="1">6</text><text fill="none" stroke="rgb(255,255,255)" font-family="geogebra-sans-serif, sans-serif" font-size="12px" font-style="normal" font-weight="normal" text-decoration="normal" x="752" y="481" text-anchor="start" dominant-baseline="alphabetic" stroke-opacity="1" stroke-linejoin="bevel" stroke-miterlimit="10" stroke-width="3">6</text><text fill="rgb(0,0,0)" stroke="none" font-family="geogebra-sans-serif, sans-serif" font-size="12px" font-style="normal" font-weight="normal" text-decoration="normal" x="752" y="481" text-anchor="start" dominant-baseline="alphabetic" fill-opacity="1">6</text><text fill="rgb(0,0,0)" stroke="none" font-family="geogebra-sans-serif, sans-serif" font-size="12px" font-style="normal" font-weight="normal" text-decoration="normal" x="843" y="481" text-anchor="start" dominant-baseline="alphabetic" fill-opacity="1">8</text><text fill="none" stroke="rgb(255,255,255)" font-family="geogebra-sans-serif, sans-serif" font-size="12px" font-style="normal" font-weight="normal" text-decoration="normal" x="843" y="481" text-anchor="start" dominant-baseline="alphabetic" stroke-opacity="1" stroke-linejoin="bevel" stroke-miterlimit="10" stroke-width="3">8</text><text fill="rgb(0,0,0)" stroke="none" font-family="geogebra-sans-serif, sans-serif" font-size="12px" font-style="normal" font-weight="normal" text-decoration="normal" x="843" y="481" text-anchor="start" dominant-baseline="alphabetic" fill-opacity="1">8</text><text fill="rgb(0,0,0)" stroke="none" font-family="geogebra-sans-serif, sans-serif" font-size="12px" font-style="normal" font-weight="normal" text-decoration="normal" x="930" y="481" text-anchor="start" dominant-baseline="alphabetic" fill-opacity="1">10</text><text fill="none" stroke="rgb(255,255,255)" font-family="geogebra-sans-serif, sans-serif" font-size="12px" font-style="normal" font-weight="normal" text-decoration="normal" x="930" y="481" text-anchor="start" dominant-baseline="alphabetic" stroke-opacity="1" stroke-linejoin="bevel" stroke-miterlimit="10" stroke-width="3">10</text><text fill="rgb(0,0,0)" stroke="none" font-family="geogebra-sans-serif, sans-serif" font-size="12px" font-style="normal" font-weight="normal" text-decoration="normal" x="930" y="481" text-anchor="start" dominant-baseline="alphabetic" fill-opacity="1">10</text><text fill="rgb(0,0,0)" stroke="none" font-family="geogebra-sans-serif, sans-serif" font-size="12px" font-style="normal" font-weight="normal" text-decoration="normal" x="1021" y="481" text-anchor="start" dominant-baseline="alphabetic" fill-opacity="1">12</text><text fill="none" stroke="rgb(255,255,255)" font-family="geogebra-sans-serif, sans-serif" font-size="12px" font-style="normal" font-weight="normal" text-decoration="normal" x="1021" y="481" text-anchor="start" dominant-baseline="alphabetic" stroke-opacity="1" stroke-linejoin="bevel" stroke-miterlimit="10" stroke-width="3">12</text><text fill="rgb(0,0,0)" stroke="none" font-family="geogebra-sans-serif, sans-serif" font-size="12px" font-style="normal" font-weight="normal" text-decoration="normal" x="1021" y="481" text-anchor="start" dominant-baseline="alphabetic" fill-opacity="1">12</text><text fill="rgb(0,0,0)" stroke="none" font-family="geogebra-sans-serif, sans-serif" font-size="12px" font-style="normal" font-weight="normal" text-decoration="normal" x="1112" y="481" text-anchor="start" dominant-baseline="alphabetic" fill-opacity="1">14</text><text fill="none" stroke="rgb(255,255,255)" font-family="geogebra-sans-serif, sans-serif" font-size="12px" font-style="normal" font-weight="normal" text-decoration="normal" x="1112" y="481" text-anchor="start" dominant-baseline="alphabetic" stroke-opacity="1" stroke-linejoin="bevel" stroke-miterlimit="10" stroke-width="3">14</text><text fill="rgb(0,0,0)" stroke="none" font-family="geogebra-sans-serif, sans-serif" font-size="12px" font-style="normal" font-weight="normal" text-decoration="normal" x="1112" y="481" text-anchor="start" dominant-baseline="alphabetic" fill-opacity="1">14</text><text fill="rgb(0,0,0)" stroke="none" font-family="geogebra-sans-serif, sans-serif" font-size="12px" font-style="normal" font-weight="normal" text-decoration="normal" x="1203" y="481" text-anchor="start" dominant-baseline="alphabetic" fill-opacity="1">16</text><text fill="none" stroke="rgb(255,255,255)" font-family="geogebra-sans-serif, sans-serif" font-size="12px" font-style="normal" font-weight="normal" text-decoration="normal" x="1203" y="481" text-anchor="start" dominant-baseline="alphabetic" stroke-opacity="1" stroke-linejoin="bevel" stroke-miterlimit="10" stroke-width="3">16</text><text fill="rgb(0,0,0)" stroke="none" font-family="geogebra-sans-serif, sans-serif" font-size="12px" font-style="normal" font-weight="normal" text-decoration="normal" x="1203" y="481" text-anchor="start" dominant-baseline="alphabetic" fill-opacity="1">16</text><text fill="rgb(0,0,0)" stroke="none" font-family="geogebra-sans-serif, sans-serif" font-size="12px" font-style="normal" font-weight="normal" text-decoration="normal" x="1294" y="481" text-anchor="start" dominant-baseline="alphabetic" fill-opacity="1">18</text><text fill="none" stroke="rgb(255,255,255)" font-family="geogebra-sans-serif, sans-serif" font-size="12px" font-style="normal" font-weight="normal" text-decoration="normal" x="1294" y="481" text-anchor="start" dominant-baseline="alphabetic" stroke-opacity="1" stroke-linejoin="bevel" stroke-miterlimit="10" stroke-width="3">18</text><text fill="rgb(0,0,0)" stroke="none" font-family="geogebra-sans-serif, sans-serif" font-size="12px" font-style="normal" font-weight="normal" text-decoration="normal" x="1294" y="481" text-anchor="start" dominant-baseline="alphabetic" fill-opacity="1">18</text><text fill="rgb(0,0,0)" stroke="none" font-family="geogebra-sans-serif, sans-serif" font-size="12px" font-style="normal" font-weight="normal" text-decoration="normal" x="1385" y="481" text-anchor="start" dominant-baseline="alphabetic" fill-opacity="1">20</text><text fill="none" stroke="rgb(255,255,255)" font-family="geogebra-sans-serif, sans-serif" font-size="12px" font-style="normal" font-weight="normal" text-decoration="normal" x="1385" y="481" text-anchor="start" dominant-baseline="alphabetic" stroke-opacity="1" stroke-linejoin="bevel" stroke-miterlimit="10" stroke-width="3">20</text><text fill="rgb(0,0,0)" stroke="none" font-family="geogebra-sans-serif, sans-serif" font-size="12px" font-style="normal" font-weight="normal" text-decoration="normal" x="1385" y="481" text-anchor="start" dominant-baseline="alphabetic" fill-opacity="1">20</text><text fill="rgb(0,0,0)" stroke="none" font-family="geogebra-sans-serif, sans-serif" font-size="12px" font-style="normal" font-weight="normal" text-decoration="normal" x="1476" y="481" text-anchor="start" dominant-baseline="alphabetic" fill-opacity="1">22</text><text fill="none" stroke="rgb(255,255,255)" font-family="geogebra-sans-serif, sans-serif" font-size="12px" font-style="normal" font-weight="normal" text-decoration="normal" x="1476" y="481" text-anchor="start" dominant-baseline="alphabetic" stroke-opacity="1" stroke-linejoin="bevel" stroke-miterlimit="10" stroke-width="3">22</text><text fill="rgb(0,0,0)" stroke="none" font-family="geogebra-sans-serif, sans-serif" font-size="12px" font-style="normal" font-weight="normal" text-decoration="normal" x="1476" y="481" text-anchor="start" dominant-baseline="alphabetic" fill-opacity="1">22</text><text fill="rgb(0,0,0)" stroke="none" font-family="geogebra-sans-serif, sans-serif" font-size="12px" font-style="normal" font-weight="normal" text-decoration="normal" x="461" y="833" text-anchor="start" dominant-baseline="alphabetic" fill-opacity="1">–8</text><text fill="none" stroke="rgb(255,255,255)" font-family="geogebra-sans-serif, sans-serif" font-size="12px" font-style="normal" font-weight="normal" text-decoration="normal" x="461" y="833" text-anchor="start" dominant-baseline="alphabetic" stroke-opacity="1" stroke-linejoin="bevel" stroke-miterlimit="10" stroke-width="3">–8</text><text fill="rgb(0,0,0)" stroke="none" font-family="geogebra-sans-serif, sans-serif" font-size="12px" font-style="normal" font-weight="normal" text-decoration="normal" x="461" y="833" text-anchor="start" dominant-baseline="alphabetic" fill-opacity="1">–8</text><text fill="rgb(0,0,0)" stroke="none" font-family="geogebra-sans-serif, sans-serif" font-size="12px" font-style="normal" font-weight="normal" text-decoration="normal" x="461" y="742" text-anchor="start" dominant-baseline="alphabetic" fill-opacity="1">–6</text><text fill="none" stroke="rgb(255,255,255)" font-family="geogebra-sans-serif, sans-serif" font-size="12px" font-style="normal" font-weight="normal" text-decoration="normal" x="461" y="742" text-anchor="start" dominant-baseline="alphabetic" stroke-opacity="1" stroke-linejoin="bevel" stroke-miterlimit="10" stroke-width="3">–6</text><text fill="rgb(0,0,0)" stroke="none" font-family="geogebra-sans-serif, sans-serif" font-size="12px" font-style="normal" font-weight="normal" text-decoration="normal" x="461" y="742" text-anchor="start" dominant-baseline="alphabetic" fill-opacity="1">–6</text><text fill="rgb(0,0,0)" stroke="none" font-family="geogebra-sans-serif, sans-serif" font-size="12px" font-style="normal" font-weight="normal" text-decoration="normal" x="461" y="652" text-anchor="start" dominant-baseline="alphabetic" fill-opacity="1">–4</text><text fill="none" stroke="rgb(255,255,255)" font-family="geogebra-sans-serif, sans-serif" font-size="12px" font-style="normal" font-weight="normal" text-decoration="normal" x="461" y="652" text-anchor="start" dominant-baseline="alphabetic" stroke-opacity="1" stroke-linejoin="bevel" stroke-miterlimit="10" stroke-width="3">–4</text><text fill="rgb(0,0,0)" stroke="none" font-family="geogebra-sans-serif, sans-serif" font-size="12px" font-style="normal" font-weight="normal" text-decoration="normal" x="461" y="652" text-anchor="start" dominant-baseline="alphabetic" fill-opacity="1">–4</text><text fill="rgb(0,0,0)" stroke="none" font-family="geogebra-sans-serif, sans-serif" font-size="12px" font-style="normal" font-weight="normal" text-decoration="normal" x="461" y="561" text-anchor="start" dominant-baseline="alphabetic" fill-opacity="1">–2</text><text fill="none" stroke="rgb(255,255,255)" font-family="geogebra-sans-serif, sans-serif" font-size="12px" font-style="normal" font-weight="normal" text-decoration="normal" x="461" y="561" text-anchor="start" dominant-baseline="alphabetic" stroke-opacity="1" stroke-linejoin="bevel" stroke-miterlimit="10" stroke-width="3">–2</text><text fill="rgb(0,0,0)" stroke="none" font-family="geogebra-sans-serif, sans-serif" font-size="12px" font-style="normal" font-weight="normal" text-decoration="normal" x="461" y="561" text-anchor="start" dominant-baseline="alphabetic" fill-opacity="1">–2</text><text fill="rgb(0,0,0)" stroke="none" font-family="geogebra-sans-serif, sans-serif" font-size="12px" font-style="normal" font-weight="normal" text-decoration="normal" x="467" y="379" text-anchor="start" dominant-baseline="alphabetic" fill-opacity="1">2</text><text fill="none" stroke="rgb(255,255,255)" font-family="geogebra-sans-serif, sans-serif" font-size="12px" font-style="normal" font-weight="normal" text-decoration="normal" x="467" y="379" text-anchor="start" dominant-baseline="alphabetic" stroke-opacity="1" stroke-linejoin="bevel" stroke-miterlimit="10" stroke-width="3">2</text><text fill="rgb(0,0,0)" stroke="none" font-family="geogebra-sans-serif, sans-serif" font-size="12px" font-style="normal" font-weight="normal" text-decoration="normal" x="467" y="379" text-anchor="start" dominant-baseline="alphabetic" fill-opacity="1">2</text><text fill="rgb(0,0,0)" stroke="none" font-family="geogebra-sans-serif, sans-serif" font-size="12px" font-style="normal" font-weight="normal" text-decoration="normal" x="467" y="288" text-anchor="start" dominant-baseline="alphabetic" fill-opacity="1">4</text><text fill="none" stroke="rgb(255,255,255)" font-family="geogebra-sans-serif, sans-serif" font-size="12px" font-style="normal" font-weight="normal" text-decoration="normal" x="467" y="288" text-anchor="start" dominant-baseline="alphabetic" stroke-opacity="1" stroke-linejoin="bevel" stroke-miterlimit="10" stroke-width="3">4</text><text fill="rgb(0,0,0)" stroke="none" font-family="geogebra-sans-serif, sans-serif" font-size="12px" font-style="normal" font-weight="normal" text-decoration="normal" x="467" y="288" text-anchor="start" dominant-baseline="alphabetic" fill-opacity="1">4</text><text fill="rgb(0,0,0)" stroke="none" font-family="geogebra-sans-serif, sans-serif" font-size="12px" font-style="normal" font-weight="normal" text-decoration="normal" x="467" y="197" text-anchor="start" dominant-baseline="alphabetic" fill-opacity="1">6</text><text fill="none" stroke="rgb(255,255,255)" font-family="geogebra-sans-serif, sans-serif" font-size="12px" font-style="normal" font-weight="normal" text-decoration="normal" x="467" y="197" text-anchor="start" dominant-baseline="alphabetic" stroke-opacity="1" stroke-linejoin="bevel" stroke-miterlimit="10" stroke-width="3">6</text><text fill="rgb(0,0,0)" stroke="none" font-family="geogebra-sans-serif, sans-serif" font-size="12px" font-style="normal" font-weight="normal" text-decoration="normal" x="467" y="197" text-anchor="start" dominant-baseline="alphabetic" fill-opacity="1">6</text><text fill="rgb(0,0,0)" stroke="none" font-family="geogebra-sans-serif, sans-serif" font-size="12px" font-style="normal" font-weight="normal" text-decoration="normal" x="467" y="106" text-anchor="start" dominant-baseline="alphabetic" fill-opacity="1">8</text><text fill="none" stroke="rgb(255,255,255)" font-family="geogebra-sans-serif, sans-serif" font-size="12px" font-style="normal" font-weight="normal" text-decoration="normal" x="467" y="106" text-anchor="start" dominant-baseline="alphabetic" stroke-opacity="1" stroke-linejoin="bevel" stroke-miterlimit="10" stroke-width="3">8</text><text fill="rgb(0,0,0)" stroke="none" font-family="geogebra-sans-serif, sans-serif" font-size="12px" font-style="normal" font-weight="normal" text-decoration="normal" x="467" y="106" text-anchor="start" dominant-baseline="alphabetic" fill-opacity="1">8</text><text fill="rgb(0,0,0)" stroke="none" font-family="geogebra-sans-serif, sans-serif" font-size="12px" font-style="normal" font-weight="normal" text-decoration="normal" x="461" y="15" text-anchor="start" dominant-baseline="alphabetic" fill-opacity="1">10</text><text fill="none" stroke="rgb(255,255,255)" font-family="geogebra-sans-serif, sans-serif" font-size="12px" font-style="normal" font-weight="normal" text-decoration="normal" x="461" y="15" text-anchor="start" dominant-baseline="alphabetic" stroke-opacity="1" stroke-linejoin="bevel" stroke-miterlimit="10" stroke-width="3">10</text><text fill="rgb(0,0,0)" stroke="none" font-family="geogebra-sans-serif, sans-serif" font-size="12px" font-style="normal" font-weight="normal" text-decoration="normal" x="461" y="15" text-anchor="start" dominant-baseline="alphabetic" fill-opacity="1">10</text><text fill="rgb(0,0,0)" stroke="none" font-family="geogebra-sans-serif, sans-serif" font-size="12px" font-style="normal" font-weight="normal" text-decoration="normal" x="467" y="481" text-anchor="start" dominant-baseline="alphabetic" fill-opacity="1">0</text><text fill="none" stroke="rgb(255,255,255)" font-family="geogebra-sans-serif, sans-serif" font-size="12px" font-style="normal" font-weight="normal" text-decoration="normal" x="467" y="481" text-anchor="start" dominant-baseline="alphabetic" stroke-opacity="1" stroke-linejoin="bevel" stroke-miterlimit="10" stroke-width="3">0</text><text fill="rgb(0,0,0)" stroke="none" font-family="geogebra-sans-serif, sans-serif" font-size="12px" font-style="normal" font-weight="normal" text-decoration="normal" x="467" y="481" text-anchor="start" dominant-baseline="alphabetic" fill-opacity="1">0</text><path fill="none" stroke="rgb(0,0,0)" paint-order="fill stroke markers" d=" M 754.1818181818178 283.36363636363643 C 754.1818181818178 333.57134089370857 713.4804318027991 374.2727272727273 663.272727272727 374.2727272727273 C 613.065022742655 374.2727272727273 572.3636363636361 333.57134089370857 572.3636363636361 283.36363636363643 C 572.3636363636361 233.15593183356432 613.065022742655 192.45454545454555 663.272727272727 192.45454545454555 C 713.4804318027991 192.45454545454555 754.1818181818178 233.15593183356432 754.1818181818178 283.36363636363643 Z" stroke-opacity="0.6980392156862745" stroke-linecap="round" stroke-linejoin="round" stroke-miterlimit="10" stroke-width="2.5"/><text fill="rgb(0,0,0)" stroke="none" font-family="geogebra-sans-serif, sans-serif" font-size="16px" font-style="normal" font-weight="normal" text-decoration="normal" x="617" y="226" text-anchor="start" dominant-baseline="alphabetic" fill-opacity="1">objetoB</text><text fill="none" stroke="rgb(255,255,255)" font-family="geogebra-sans-serif, sans-serif" font-size="16px" font-style="normal" font-weight="normal" text-decoration="normal" x="617" y="226" text-anchor="start" dominant-baseline="alphabetic" stroke-opacity="1" stroke-linejoin="bevel" stroke-miterlimit="10" stroke-width="3">objetoB</text><text fill="rgb(0,0,0)" stroke="none" font-family="geogebra-sans-serif, sans-serif" font-size="16px" font-style="normal" font-weight="normal" text-decoration="normal" x="617" y="226" text-anchor="start" dominant-baseline="alphabetic" fill-opacity="1">objetoB</text><path fill="none" stroke="rgb(0,0,0)" paint-order="fill stroke markers" d=" M 572.3636363636363 465.1818181818182 C 572.3636363636363 565.5972272419624 490.96086360559866 647 390.5454545454545 647 C 290.13004548531035 647 208.7272727272728 565.5972272419624 208.7272727272728 465.1818181818182 C 208.7272727272728 364.766409121674 290.13004548531035 283.36363636363643 390.5454545454545 283.36363636363643 C 490.96086360559866 283.36363636363643 572.3636363636363 364.766409121674 572.3636363636363 465.1818181818182 Z" stroke-opacity="0.6980392156862745" stroke-linecap="round" stroke-linejoin="round" stroke-miterlimit="10" stroke-width="2.5"/><text fill="rgb(0,0,0)" stroke="none" font-family="geogebra-sans-serif, sans-serif" font-size="16px" font-style="normal" font-weight="normal" text-decoration="normal" x="299" y="330" text-anchor="start" dominant-baseline="alphabetic" fill-opacity="1">objetoA</text><text fill="none" stroke="rgb(255,255,255)" font-family="geogebra-sans-serif, sans-serif" font-size="16px" font-style="normal" font-weight="normal" text-decoration="normal" x="299" y="330" text-anchor="start" dominant-baseline="alphabetic" stroke-opacity="1" stroke-linejoin="bevel" stroke-miterlimit="10" stroke-width="3">objetoA</text><text fill="rgb(0,0,0)" stroke="none" font-family="geogebra-sans-serif, sans-serif" font-size="16px" font-style="normal" font-weight="normal" text-decoration="normal" x="299" y="330" text-anchor="start" dominant-baseline="alphabetic" fill-opacity="1">objetoA</text><path fill="none" stroke="rgb(0,0,0)" paint-order="fill stroke markers" d=" M 390.5454545454545 465.1818181818182 L 663.272727272727 283.36363636363643" stroke-opacity="0.6980392156862745" stroke-linejoin="round" stroke-miterlimit="10" stroke-width="2.5" stroke-dasharray="2.5,3"/><path fill="rgb(21,101,192)" stroke="none" paint-order="stroke fill markers" d=" M 668.272727272727 283.36363636363643 C 668.272727272727 286.1250601127904 666.034151021881 288.36363636363643 663.272727272727 288.36363636363643 C 660.511303523573 288.36363636363643 658.272727272727 286.1250601127904 658.272727272727 283.36363636363643 C 658.272727272727 280.6022126144825 660.511303523573 278.36363636363643 663.272727272727 278.36363636363643 C 666.034151021881 278.36363636363643 668.272727272727 280.6022126144825 668.272727272727 283.36363636363643 Z" fill-opacity="1"/><path fill="none" stroke="rgb(0,0,0)" paint-order="fill stroke markers" d=" M 668.272727272727 283.36363636363643 C 668.272727272727 286.1250601127904 666.034151021881 288.36363636363643 663.272727272727 288.36363636363643 C 660.511303523573 288.36363636363643 658.272727272727 286.1250601127904 658.272727272727 283.36363636363643 C 658.272727272727 280.6022126144825 660.511303523573 278.36363636363643 663.272727272727 278.36363636363643 C 666.034151021881 278.36363636363643 668.272727272727 280.6022126144825 668.272727272727 283.36363636363643 Z" stroke-opacity="1" stroke-linecap="round" stroke-linejoin="round" stroke-miterlimit="10"/><text fill="rgb(21,101,192)" stroke="none" font-family="geogebra-sans-serif, sans-serif" font-size="16px" font-style="normal" font-weight="normal" text-decoration="normal" x="667" y="273" text-anchor="start" dominant-baseline="alphabetic" fill-opacity="1">B = (4, 4)</text><text fill="none" stroke="rgb(255,255,255)" font-family="geogebra-sans-serif, sans-serif" font-size="16px" font-style="normal" font-weight="normal" text-decoration="normal" x="667" y="273" text-anchor="start" dominant-baseline="alphabetic" stroke-opacity="1" stroke-linejoin="bevel" stroke-miterlimit="10" stroke-width="3">B = (4, 4)</text><text fill="rgb(21,101,192)" stroke="none" font-family="geogebra-sans-serif, sans-serif" font-size="16px" font-style="normal" font-weight="normal" text-decoration="normal" x="667" y="273" text-anchor="start" dominant-baseline="alphabetic" fill-opacity="1">B = (4, 4)</text><path fill="rgb(21,101,192)" stroke="none" paint-order="stroke fill markers" d=" M 395.5454545454545 465.1818181818182 C 395.5454545454545 467.94324193097214 393.30687829460845 470.1818181818182 390.5454545454545 470.1818181818182 C 387.78403079630056 470.1818181818182 385.5454545454545 467.94324193097214 385.5454545454545 465.1818181818182 C 385.5454545454545 462.42039443266424 387.78403079630056 460.1818181818182 390.5454545454545 460.1818181818182 C 393.30687829460845 460.1818181818182 395.5454545454545 462.42039443266424 395.5454545454545 465.1818181818182 Z" fill-opacity="1"/><path fill="none" stroke="rgb(0,0,0)" paint-order="fill stroke markers" d=" M 395.5454545454545 465.1818181818182 C 395.5454545454545 467.94324193097214 393.30687829460845 470.1818181818182 390.5454545454545 470.1818181818182 C 387.78403079630056 470.1818181818182 385.5454545454545 467.94324193097214 385.5454545454545 465.1818181818182 C 385.5454545454545 462.42039443266424 387.78403079630056 460.1818181818182 390.5454545454545 460.1818181818182 C 393.30687829460845 460.1818181818182 395.5454545454545 462.42039443266424 395.5454545454545 465.1818181818182 Z" stroke-opacity="1" stroke-linecap="round" stroke-linejoin="round" stroke-miterlimit="10"/><text fill="rgb(21,101,192)" stroke="none" font-family="geogebra-sans-serif, sans-serif" font-size="16px" font-style="normal" font-weight="normal" text-decoration="normal" x="325" y="443" text-anchor="start" dominant-baseline="alphabetic" fill-opacity="1">A = (-2, 0)</text><text fill="none" stroke="rgb(255,255,255)" font-family="geogebra-sans-serif, sans-serif" font-size="16px" font-style="normal" font-weight="normal" text-decoration="normal" x="325" y="443" text-anchor="start" dominant-baseline="alphabetic" stroke-opacity="1" stroke-linejoin="bevel" stroke-miterlimit="10" stroke-width="3">A = (-2, 0)</text><text fill="rgb(21,101,192)" stroke="none" font-family="geogebra-sans-serif, sans-serif" font-size="16px" font-style="normal" font-weight="normal" text-decoration="normal" x="325" y="443" text-anchor="start" dominant-baseline="alphabetic" fill-opacity="1">A = (-2, 0)</text><path fill="rgb(97,97,97)" stroke="none" paint-order="stroke fill markers" d=" M 546.8273262432442 364.3272370499584 C 546.8273262432442 367.08866079911235 544.5887499923982 369.3272370499584 541.8273262432442 369.3272370499584 C 539.0659024940902 369.3272370499584 536.8273262432442 367.08866079911235 536.8273262432442 364.3272370499584 C 536.8273262432442 361.56581330080445 539.0659024940902 359.3272370499584 541.8273262432442 359.3272370499584 C 544.5887499923982 359.3272370499584 546.8273262432442 361.56581330080445 546.8273262432442 364.3272370499584 Z" fill-opacity="1"/><path fill="none" stroke="rgb(0,0,0)" paint-order="fill stroke markers" d=" M 546.8273262432442 364.3272370499584 C 546.8273262432442 367.08866079911235 544.5887499923982 369.3272370499584 541.8273262432442 369.3272370499584 C 539.0659024940902 369.3272370499584 536.8273262432442 367.08866079911235 536.8273262432442 364.3272370499584 C 536.8273262432442 361.56581330080445 539.0659024940902 359.3272370499584 541.8273262432442 359.3272370499584 C 544.5887499923982 359.3272370499584 546.8273262432442 361.56581330080445 546.8273262432442 364.3272370499584 Z" stroke-opacity="1" stroke-linecap="round" stroke-linejoin="round" stroke-miterlimit="10"/><text fill="rgb(97,97,97)" stroke="none" font-family="geogebra-sans-serif, sans-serif" font-size="16px" font-style="normal" font-weight="normal" text-decoration="normal" x="546" y="354" text-anchor="start" dominant-baseline="alphabetic" fill-opacity="1">C</text><text fill="none" stroke="rgb(255,255,255)" font-family="geogebra-sans-serif, sans-serif" font-size="16px" font-style="normal" font-weight="normal" text-decoration="normal" x="546" y="354" text-anchor="start" dominant-baseline="alphabetic" stroke-opacity="1" stroke-linejoin="bevel" stroke-miterlimit="10" stroke-width="3">C</text><text fill="rgb(97,97,97)" stroke="none" font-family="geogebra-sans-serif, sans-serif" font-size="16px" font-style="normal" font-weight="normal" text-decoration="normal" x="546" y="354" text-anchor="start" dominant-baseline="alphabetic" fill-opacity="1">C</text><path fill="rgb(97,97,97)" stroke="none" paint-order="stroke fill markers" d=" M 592.6317914238322 333.79092692956635 C 592.6317914238322 336.5523506787203 590.3932151729862 338.79092692956635 587.6317914238322 338.79092692956635 C 584.8703676746782 338.79092692956635 582.6317914238322 336.5523506787203 582.6317914238322 333.79092692956635 C 582.6317914238322 331.0295031804124 584.8703676746782 328.79092692956635 587.6317914238322 328.79092692956635 C 590.3932151729862 328.79092692956635 592.6317914238322 331.0295031804124 592.6317914238322 333.79092692956635 Z" fill-opacity="1"/><path fill="none" stroke="rgb(0,0,0)" paint-order="fill stroke markers" d=" M 592.6317914238322 333.79092692956635 C 592.6317914238322 336.5523506787203 590.3932151729862 338.79092692956635 587.6317914238322 338.79092692956635 C 584.8703676746782 338.79092692956635 582.6317914238322 336.5523506787203 582.6317914238322 333.79092692956635 C 582.6317914238322 331.0295031804124 584.8703676746782 328.79092692956635 587.6317914238322 328.79092692956635 C 590.3932151729862 328.79092692956635 592.6317914238322 331.0295031804124 592.6317914238322 333.79092692956635 Z" stroke-opacity="1" stroke-linecap="round" stroke-linejoin="round" stroke-miterlimit="10"/><text fill="rgb(97,97,97)" stroke="none" font-family="geogebra-sans-serif, sans-serif" font-size="16px" font-style="normal" font-weight="normal" text-decoration="normal" x="592" y="324" text-anchor="start" dominant-baseline="alphabetic" fill-opacity="1">D</text><text fill="none" stroke="rgb(255,255,255)" font-family="geogebra-sans-serif, sans-serif" font-size="16px" font-style="normal" font-weight="normal" text-decoration="normal" x="592" y="324" text-anchor="start" dominant-baseline="alphabetic" stroke-opacity="1" stroke-linejoin="bevel" stroke-miterlimit="10" stroke-width="3">D</text><text fill="rgb(97,97,97)" stroke="none" font-family="geogebra-sans-serif, sans-serif" font-size="16px" font-style="normal" font-weight="normal" text-decoration="normal" x="592" y="324" text-anchor="start" dominant-baseline="alphabetic" fill-opacity="1">D</text><path fill="rgb(255,255,255)" stroke="none" paint-order="stroke fill markers" d=" M 475 414 L 530 414 L 530 444 L 475 444 L 475 414 Z" fill-opacity="1"/><text fill="rgb(0,0,0)" stroke="none" font-family="geogebra-sans-serif, sans-serif" font-size="16px" font-style="normal" font-weight="normal" text-decoration="normal" x="478" y="433" text-anchor="start" dominant-baseline="alphabetic" fill-opacity="1">AC = 4</text><path fill="rgb(255,255,255)" stroke="none" paint-order="stroke fill markers" d=" M 641 308 L 696 308 L 696 338 L 641 338 L 641 308 Z" fill-opacity="1"/><text fill="rgb(0,0,0)" stroke="none" font-family="geogebra-sans-serif, sans-serif" font-size="16px" font-style="normal" font-weight="normal" text-decoration="normal" x="644" y="327" text-anchor="start" dominant-baseline="alphabetic" fill-opacity="1">BD = 2</text><path fill="rgb(255,255,255)" stroke="none" paint-order="stroke fill markers" d=" M 594 394 L 757 394 L 757 424 L 594 424 L 594 394 Z" fill-opacity="1"/><text fill="rgb(0,0,0)" stroke="none" font-family="geogebra-sans-serif, sans-serif" font-size="16px" font-style="normal" font-weight="normal" text-decoration="normal" x="597" y="413" text-anchor="start" dominant-baseline="alphabetic" fill-opacity="1">AB = 7.211102550928</text></g></g></svg>